<?xml version="1.0" encoding="UTF-8"?>
<svg id="Mode_Isolation" data-name="Mode Isolation" xmlns="http://www.w3.org/2000/svg" viewBox="0 0 563 235">
  <defs>
    <style>
      .cls-1 {
        fill: #009145;
      }

      .cls-2 {
        fill: #92c03f;
      }

      .cls-3 {
        fill: #e8272e;
      }
    </style>
  </defs>
  <g>
    <path class="cls-3" d="m225.88,117.88c1.46.07,2.86.08,4.21.03,1.34-.05,2.69-.13,4.05-.23,1.15-.13,2.12-.04,2.91.28.78.32,1.38.78,1.79,1.38s.64,1.27.69,2.01c.05.75-.08,1.48-.41,2.19s-.83,1.36-1.5,1.94-1.55,1-2.6,1.27c-1.02.24-2.14.4-3.37.48-1.22.08-2.45.13-3.67.13s-2.42-.02-3.6-.05c-1.17-.03-2.24-.05-3.19-.05-1.19.03-2.25-.33-3.19-1.1-.94-.77-1.54-1.78-1.81-3.04-.1-.41-.17-.82-.2-1.25-.04-.42-.05-.86-.05-1.3.03-1.67.05-3.68.05-6.04s0-4.81-.03-7.34c-.02-2.53-.05-5.05-.1-7.55-.05-2.5-.13-4.75-.23-6.76-.07-1.29.14-2.38.61-3.26.48-.88,1.1-1.55,1.86-1.99.76-.44,1.6-.66,2.5-.66s1.73.22,2.5.66c.76.44,1.41,1.11,1.94,1.99.53.88.77,2.01.74,3.37.07,1.7.1,3.64.1,5.81s0,4.4-.03,6.68c-.02,2.28-.03,4.5-.03,6.68s.02,4.08.05,5.71Z"/>
    <path class="cls-3" d="m251.84,117.37c.34,1.33,1.1,2.23,2.29,2.7,2.82,1.29,5.46,1.02,7.91-.82.27-.2.54-.41.79-.61.25-.2.54-.41.84-.61,1.16-.71,2.21-.71,3.16,0,.92.68,1.21,1.7.87,3.06-.41,1.39-1.16,2.62-2.24,3.67-1.63,1.53-3.4,2.56-5.3,3.09-1.9.53-3.96.5-6.17-.08-3.3-.82-5.87-2.35-7.7-4.62-1.84-2.26-2.86-5.07-3.06-8.44-.1-1.73.04-3.41.43-5.02.39-1.61,1-3.19,1.81-4.72.68-1.22,1.55-2.31,2.6-3.26,1.05-.95,2.22-1.72,3.49-2.32,1.28-.59,2.62-.98,4.03-1.15,1.41-.17,2.81-.1,4.21.2,1.84.41,3.38,1.15,4.64,2.22,1.26,1.07,2.18,2.49,2.75,4.26.44,1.43.54,2.79.28,4.08-.26,1.29-.75,2.47-1.48,3.52s-1.64,1.98-2.73,2.78c-1.09.8-2.28,1.42-3.57,1.86-1.29.44-2.62.69-3.98.74-1.36.05-2.65-.13-3.88-.54Zm4.18-11.78c-.92.34-1.61.76-2.07,1.25s-.74.99-.84,1.48c-.1.49-.04.96.18,1.4.22.44.55.79.99,1.05.44.25.98.39,1.61.41.63.02,1.3-.16,2.01-.54.85-.41,1.44-.95,1.79-1.63.34-.68.42-1.32.25-1.91s-.58-1.06-1.22-1.4c-.65-.34-1.55-.37-2.7-.1Z"/>
    <path class="cls-3" d="m286.82,93.45c.21.1.48.25.82.46s.7.46,1.07.76c.38.31.74.68,1.1,1.12.36.44.65.94.89,1.48.47,1.16.53,2.2.15,3.14-.38.93-.93,1.68-1.66,2.24-.73.56-1.54.89-2.42,1-.88.1-1.62-.12-2.19-.66-.07-.07-.15-.15-.25-.25s-.21-.19-.31-.25c-.65-.51-1.24-.75-1.79-.71-.54.04-1,.22-1.38.56-.38.34-.63.8-.76,1.38s-.12,1.14.05,1.68c.17.51.55,1.04,1.15,1.58.59.54,1.25,1.09,1.96,1.63.88.65,1.74,1.37,2.58,2.17.83.8,1.59,1.64,2.27,2.52,1.16,1.56,1.84,3.23,2.04,5,.2,1.77-.05,3.39-.76,4.87-.71,1.48-1.91,2.7-3.6,3.65-1.68.95-3.83,1.39-6.45,1.33-1.19-.03-2.36-.26-3.52-.69s-2.19-1-3.11-1.73-1.67-1.6-2.24-2.6c-.58-1-.88-2.1-.92-3.29-.07-.71.08-1.45.43-2.19.36-.75.84-1.37,1.45-1.86.61-.49,1.31-.8,2.09-.92.78-.12,1.55.11,2.29.69.37.27.71.59.99.97.29.38.59.71.89,1.02.51.51,1.05.79,1.63.84.58.05,1.07-.05,1.48-.31s.65-.63.74-1.12c.08-.49-.13-1.06-.64-1.71-.37-.48-.79-.91-1.25-1.3-.46-.39-.93-.77-1.4-1.15-.37-.34-.77-.65-1.2-.92-.43-.27-.83-.58-1.2-.92-2.75-2.31-3.76-5.2-3.01-8.67.34-1.5,1-2.92,1.96-4.26.97-1.34,2.11-2.46,3.42-3.34,1.31-.88,2.71-1.46,4.21-1.73,1.5-.27,2.96-.1,4.39.51Z"/>
    <path class="cls-3" d="m326.45,117.68c.1,1.19.17,2.45.2,3.77.03,1.33-.1,2.52-.41,3.57-.17.61-.45,1.13-.84,1.55-.39.43-.83.74-1.3.94-.48.2-.99.32-1.53.36-.54.03-1.07-.02-1.58-.15-.95-.27-1.63-.7-2.04-1.27s-.68-1.24-.82-1.99c-.14-.75-.18-1.53-.13-2.35.05-.82.06-1.58.03-2.29-.07-2.45-.14-4.93-.2-7.45-.07-2.52-.15-5-.23-7.45-.08-2.45-.2-4.81-.33-7.09-.14-2.28-.31-4.39-.51-6.32-.1-.82-.02-1.5.25-2.07.27-.56.67-1.02,1.2-1.38.53-.36,1.15-.62,1.86-.79.71-.17,1.46-.27,2.24-.31,2.11-.07,4.17.08,6.2.43,2.02.36,3.94.94,5.74,1.73,1.8.8,3.45,1.8,4.95,3.01,1.5,1.21,2.77,2.63,3.82,4.26.65,1.09,1.15,2.24,1.5,3.44.36,1.21.54,2.42.56,3.65.02,1.22-.15,2.44-.49,3.65-.34,1.21-.87,2.34-1.58,3.39-.99,1.5-2.12,2.69-3.39,3.57-1.28.88-2.63,1.57-4.05,2.07s-2.92.84-4.49,1.04c-1.56.2-3.11.36-4.64.46Zm-1.28-23.21c.27,2.52.42,5,.46,7.45.03,2.45.19,4.9.46,7.34.99.27,2.06.33,3.21.18,1.16-.15,2.25-.45,3.29-.89,1.04-.44,1.94-1.03,2.7-1.76.77-.73,1.25-1.56,1.45-2.47.44-1.94.28-3.58-.48-4.92-.76-1.34-1.79-2.41-3.08-3.21s-2.69-1.33-4.18-1.61c-1.5-.27-2.77-.31-3.82-.1Z"/>
    <path class="cls-3" d="m369.34,122.37c-.48.54-.92.97-1.33,1.28-.88.82-1.81,1.51-2.78,2.09-.97.58-2.05,1-3.24,1.27-1.84.37-3.62.33-5.35-.13s-3.27-1.24-4.62-2.35c-1.34-1.1-2.42-2.46-3.21-4.05-.8-1.6-1.18-3.33-1.15-5.2.04-2.55.5-4.92,1.4-7.11.9-2.19,2.13-4.09,3.7-5.69,1.56-1.6,3.43-2.81,5.58-3.65s4.53-1.17,7.11-1c.68.07,1.35.2,2.02.41.66.2,1.32.48,1.96.82.41.2.79.35,1.15.43.36.09.77.08,1.25-.03.99-.27,1.89-.16,2.7.33.82.49,1.36,1.22,1.63,2.17.24.75.36,1.6.36,2.55.03,1.53.04,3.03.03,4.51-.02,1.48-.03,2.98-.03,4.51,0,1.77.22,3.13.66,4.08.44.95.94,1.59,1.5,1.91.56.32,1.1.37,1.61.13.51-.24.82-.68.92-1.33.13-.68.34-1.23.61-1.66.27-.42.59-.75.94-.97.36-.22.72-.37,1.1-.43.37-.07.71-.1,1.02-.1.82,0,1.5.32,2.04.94.54.63.78,1.4.71,2.32-.1,1.26-.38,2.45-.84,3.57s-1.04,2.12-1.76,2.98c-.71.87-1.54,1.56-2.47,2.09-.94.53-1.95.82-3.04.89-.99.07-1.97,0-2.96-.23-.99-.22-1.93-.56-2.83-1.02-.9-.46-1.73-1.05-2.5-1.79-.77-.73-1.4-1.59-1.91-2.58Zm-7.91-14.48c-1.53.78-2.65,1.85-3.37,3.21-.71,1.36-1.02,3.11-.92,5.25.03,1.19.37,2.02.99,2.5.63.48,1.35.69,2.17.64.82-.05,1.63-.3,2.45-.74.82-.44,1.45-.99,1.89-1.63.68-.95,1.25-1.84,1.71-2.68.46-.83.88-1.69,1.25-2.58.61-1.6.78-2.78.51-3.54-.27-.76-.77-1.25-1.48-1.45-.71-.2-1.56-.19-2.53.05-.97.24-1.86.56-2.68.97Z"/>
    <path class="cls-3" d="m409.17,113.55c0,1.77.22,3.13.66,4.08.44.95.94,1.59,1.51,1.91.56.32,1.1.37,1.61.13.51-.24.82-.68.92-1.33.14-.68.34-1.23.61-1.66.27-.42.59-.75.94-.97.36-.22.72-.37,1.1-.43.37-.07.71-.1,1.02-.1.82,0,1.5.32,2.04.94.54.63.78,1.4.71,2.32-.1,1.26-.38,2.45-.84,3.57s-1.05,2.12-1.76,2.98c-.71.87-1.54,1.56-2.47,2.09-.94.53-1.95.82-3.03.89-1.9.1-3.54-.18-4.9-.84-1.36-.66-2.48-1.56-3.37-2.7-.88-1.14-1.57-2.46-2.06-3.95-.49-1.5-.83-3.03-.99-4.59-.04-.37-.09-1.1-.15-2.19-.07-1.09-.2-2.22-.41-3.39s-.53-2.24-.97-3.21-1.05-1.56-1.84-1.76c-.92-.2-1.72-.12-2.4.25-.68.38-1.26.92-1.73,1.63-.48.71-.86,1.56-1.15,2.53-.29.97-.52,1.92-.69,2.86-.17.94-.28,1.81-.33,2.63-.05.82-.08,1.45-.08,1.89,0,.88.02,1.74.05,2.58.03.83.08,1.84.15,3.04,0,1.46-.4,2.66-1.2,3.59s-1.91,1.49-3.34,1.66c-1.7.24-3.08-.15-4.13-1.15-1.05-1-1.65-2.37-1.79-4.11-.07-1.26-.11-2.75-.13-4.49-.02-1.73,0-3.53.03-5.38.03-1.85.08-3.71.15-5.56.07-1.85.15-3.53.25-5.02.1-.92.45-1.67,1.05-2.27.59-.59,1.27-.96,2.04-1.1.77-.14,1.52-.03,2.27.33.75.36,1.31,1,1.68,1.91.37-.34.72-.65,1.04-.94s.64-.57.94-.84c1.16-.92,2.41-1.59,3.75-2.01,1.34-.42,2.69-.59,4.03-.48,1.34.1,2.65.45,3.93,1.05s2.4,1.44,3.39,2.52c.51.54.98,1.1,1.4,1.68.42.58.81,1.33,1.15,2.24s.62,2.11.84,3.57c.22,1.46.38,3.33.48,5.61Z"/>
    <path class="cls-3" d="m421.87,113.55c0,1.77.22,3.13.66,4.08.44.95.94,1.59,1.5,1.91s1.1.37,1.61.13c.51-.24.82-.68.92-1.33.13-.68.34-1.23.61-1.66.27-.42.59-.75.94-.97.36-.22.72-.37,1.1-.43.37-.07.71-.1,1.02-.1.82,0,1.5.32,2.04.94s.78,1.4.71,2.32c-.1,1.26-.38,2.45-.84,3.57s-1.04,2.12-1.76,2.98c-.71.87-1.54,1.56-2.47,2.09-.94.53-1.95.82-3.04.89-1.73.1-3.24-.12-4.51-.66-1.27-.54-2.35-1.3-3.21-2.27-.87-.97-1.57-2.09-2.12-3.37-.54-1.28-.94-2.63-1.17-4.05-.13-.68-.24-1.37-.31-2.07-.07-.7-.11-1.44-.13-2.24-.02-.8-.02-1.68,0-2.65.02-.97.06-2.08.13-3.34.03-.99.26-1.79.69-2.42.42-.63.94-1.1,1.55-1.43.61-.32,1.27-.48,1.96-.46.7.02,1.35.18,1.96.48.61.31,1.12.76,1.53,1.35.41.6.61,1.32.61,2.17,0,.2,0,.44-.03.71-.02.27-.03.64-.03,1.1v1.84c0,.76.02,1.73.05,2.88Zm-3.47-20.4c1.09,0,2,.37,2.73,1.12.73.75,1.08,1.67,1.04,2.75,0,1.05-.38,1.96-1.15,2.7-.77.75-1.68,1.12-2.73,1.12-1.05-.03-1.96-.44-2.7-1.22-.75-.78-1.12-1.68-1.12-2.7.03-1.09.43-2,1.2-2.73.77-.73,1.67-1.08,2.73-1.04Z"/>
    <path class="cls-3" d="m434.21,117.37c.34,1.33,1.1,2.23,2.29,2.7,2.82,1.29,5.46,1.02,7.9-.82.27-.2.54-.41.79-.61.25-.2.54-.41.84-.61,1.16-.71,2.21-.71,3.16,0,.92.68,1.21,1.7.87,3.06-.41,1.39-1.16,2.62-2.24,3.67-1.63,1.53-3.4,2.56-5.3,3.09-1.9.53-3.96.5-6.17-.08-3.3-.82-5.87-2.35-7.7-4.62-1.84-2.26-2.86-5.07-3.06-8.44-.1-1.73.04-3.41.43-5.02.39-1.61.99-3.19,1.81-4.72.68-1.22,1.55-2.31,2.6-3.26,1.05-.95,2.22-1.72,3.49-2.32,1.28-.59,2.62-.98,4.03-1.15,1.41-.17,2.81-.1,4.21.2,1.84.41,3.38,1.15,4.64,2.22,1.26,1.07,2.17,2.49,2.75,4.26.44,1.43.54,2.79.28,4.08-.25,1.29-.75,2.47-1.48,3.52-.73,1.05-1.64,1.98-2.73,2.78-1.09.8-2.28,1.42-3.57,1.86-1.29.44-2.62.69-3.98.74-1.36.05-2.65-.13-3.88-.54Zm4.18-11.78c-.92.34-1.61.76-2.07,1.25s-.74.99-.84,1.48c-.1.49-.04.96.18,1.4.22.44.55.79.99,1.05s.98.39,1.61.41c.63.02,1.3-.16,2.01-.54.85-.41,1.45-.95,1.79-1.63.34-.68.42-1.32.25-1.91-.17-.59-.58-1.06-1.22-1.4-.65-.34-1.55-.37-2.7-.1Z"/>
    <path class="cls-3" d="m466.8,97.84c1.16-.34,2.29-.41,3.39-.2,1.1.2,2.12.7,3.03,1.48.88.78,1.45,1.59,1.71,2.42.26.83.31,1.64.18,2.42-.1.58-.29,1.12-.56,1.63s-.59.94-.97,1.28c-.38.34-.77.59-1.2.74-.43.15-.83.18-1.2.08l-2.14-.51c-1.36-.34-2.5-.3-3.42.13-.92.42-1.68,1.09-2.27,1.99-.6.9-1.05,1.96-1.35,3.19-.31,1.22-.52,2.46-.64,3.7s-.18,2.41-.18,3.52.02,2,.05,2.68c0,.37,0,.74-.03,1.1-.02.36-.06.71-.13,1.04-.14.44-.28.88-.43,1.3-.15.43-.38.79-.69,1.1-.31.31-.71.55-1.22.74-.51.19-1.17.26-1.99.23-1.05-.03-1.87-.21-2.45-.54-.58-.32-1-.75-1.28-1.28-.27-.53-.43-1.14-.48-1.84-.05-.7-.06-1.44-.03-2.22.07-1.73.1-3.56.1-5.48s-.03-3.83-.08-5.74c-.05-1.9-.11-3.72-.18-5.46-.07-1.73-.15-3.3-.25-4.69-.07-.75.1-1.38.51-1.89s.92-.89,1.53-1.15,1.26-.39,1.94-.41c.68-.02,1.27.11,1.78.38.65.38,1.2.91,1.66,1.61.46.7.76,1.52.89,2.47.92-.88,1.91-1.65,2.98-2.29,1.07-.65,2.2-1.16,3.39-1.53Z"/>
    <path class="cls-3" d="m494.69,93.45c.2.1.48.25.82.46s.7.46,1.07.76c.37.31.74.68,1.1,1.12.36.44.65.94.89,1.48.48,1.16.53,2.2.15,3.14-.37.93-.93,1.68-1.66,2.24-.73.56-1.54.89-2.42,1-.88.1-1.62-.12-2.19-.66l-.25-.25c-.1-.1-.2-.19-.31-.25-.65-.51-1.24-.75-1.78-.71-.54.04-1,.22-1.38.56-.37.34-.63.8-.76,1.38-.14.58-.12,1.14.05,1.68.17.51.55,1.04,1.15,1.58.6.54,1.25,1.09,1.96,1.63.88.65,1.74,1.37,2.57,2.17.83.8,1.59,1.64,2.27,2.52,1.16,1.56,1.84,3.23,2.04,5,.2,1.77-.05,3.39-.77,4.87-.71,1.48-1.91,2.7-3.6,3.65-1.68.95-3.83,1.39-6.45,1.33-1.19-.03-2.36-.26-3.52-.69s-2.19-1-3.11-1.73-1.67-1.6-2.24-2.6c-.58-1-.88-2.1-.92-3.29-.07-.71.08-1.45.43-2.19.36-.75.84-1.37,1.45-1.86.61-.49,1.31-.8,2.09-.92s1.55.11,2.29.69c.38.27.71.59,1,.97.29.38.59.71.89,1.02.51.51,1.05.79,1.63.84.58.05,1.07-.05,1.48-.31s.65-.63.74-1.12c.08-.49-.13-1.06-.64-1.71-.37-.48-.79-.91-1.25-1.3-.46-.39-.93-.77-1.4-1.15-.38-.34-.77-.65-1.2-.92-.43-.27-.82-.58-1.2-.92-2.75-2.31-3.76-5.2-3.01-8.67.34-1.5.99-2.92,1.96-4.26.97-1.34,2.11-2.46,3.42-3.34,1.31-.88,2.71-1.46,4.21-1.73,1.5-.27,2.96-.1,4.39.51Z"/>
    <path class="cls-3" d="m231.89,160.87c0-.27,0-.54-.03-.82-.02-.27,0-.56.03-.87.03-1.36.07-2.71.1-4.05.03-1.34.08-2.69.15-4.05.07-1.05.37-1.92.89-2.6.53-.68,1.15-1.19,1.86-1.53.71-.34,1.49-.53,2.32-.56s1.61.08,2.32.33,1.3.64,1.76,1.15.69,1.14.69,1.89c0,1.56-.06,3.27-.18,5.13-.12,1.85-.24,3.72-.36,5.61-.12,1.89-.21,3.74-.28,5.56-.07,1.82-.05,3.48.05,4.97.07,1.19.11,2.36.13,3.52.02,1.16,0,2.33-.08,3.52.27.92.63,1.62,1.07,2.09.44.48.89.76,1.35.84s.87,0,1.22-.28c.36-.27.59-.66.69-1.17.13-.68.34-1.23.61-1.66.27-.42.59-.75.94-.97.36-.22.72-.37,1.1-.43.37-.07.71-.1,1.02-.1.82,0,1.5.32,2.04.94s.78,1.4.71,2.32c-.1,1.26-.38,2.45-.84,3.57s-1.04,2.12-1.76,2.98c-.71.87-1.54,1.56-2.47,2.09-.94.53-1.95.82-3.04.89-1.43.07-2.7-.08-3.82-.43-1.12-.36-2.11-.88-2.96-1.56-.2.1-.42.21-.64.33-.22.12-.45.21-.69.28-1.53.58-3.14.96-4.82,1.15-1.68.19-3.36.18-5.02-.03-1.67-.2-3.26-.62-4.79-1.25-1.53-.63-2.91-1.46-4.13-2.5-1.22-1.04-2.24-2.29-3.03-3.77-.8-1.48-1.28-3.17-1.45-5.07-.27-3.06.29-5.88,1.68-8.47s3.57-4.64,6.53-6.17c1.63-.82,3.3-1.31,5-1.48,1.7-.17,3.43.03,5.2.61l.61.15s.07,0,.1-.03c.03-.02.1-.04.21-.08Zm-1.28,8.01c-.88-.34-1.74-.5-2.58-.48-.83.02-1.62.2-2.35.54-.73.34-1.41.79-2.04,1.35-.63.56-1.15,1.2-1.56,1.91-.65,1.16-.99,2.24-1.04,3.24-.05,1,.14,1.89.59,2.65s1.1,1.39,1.96,1.89c.87.49,1.91.81,3.14.94,1.05.14,2.07.03,3.03-.31s1.76-1,2.37-1.99c.27-.44.45-1.15.54-2.12s.07-1.98-.05-3.03c-.12-1.05-.34-2.02-.66-2.91-.32-.88-.77-1.45-1.35-1.68Z"/>
    <path class="cls-3" d="m251.53,158.89c-.44.71-1.09.99-1.94.82-.75-.2-1.26-.68-1.53-1.43,0-.07-.03-.17-.1-.31-.17-1.5-.25-2.98-.23-4.46.02-1.48.16-2.95.43-4.41.14-.58.37-1.01.71-1.3.34-.29.75-.45,1.22-.48,1.09-.07,1.8.46,2.14,1.58.24.71.41,1.54.51,2.47.1.94.13,1.88.08,2.83-.05.95-.18,1.84-.38,2.68s-.51,1.5-.92,2.01Z"/>
    <path class="cls-3" d="m264.43,155.47c.03.78.08,1.51.13,2.19.05.68.1,1.35.15,2.01.05.66.09,1.33.13,2.01.03.68.08,1.39.15,2.14,1.29.07,2.56.15,3.8.23,1.24.09,2.46,0,3.65-.23.99-.2,1.8-.18,2.45.08.64.25,1.12.63,1.43,1.12.31.49.46,1.05.46,1.68s-.12,1.23-.36,1.81-.59,1.06-1.07,1.45c-.48.39-1.04.6-1.68.64-.65.03-1.33.03-2.07,0-.73-.03-1.47-.07-2.22-.1-.75-.03-1.5-.04-2.27-.03-.77.02-1.5.08-2.22.18v9.89c1.26.17,2.51.23,3.75.18,1.24-.05,2.44-.23,3.6-.54,2.31-.61,4.11-.53,5.38.25,1.27.78,1.91,2.04,1.91,3.77,0,.54-.13,1.06-.38,1.56-.25.49-.6.93-1.04,1.3-.99.88-2.12,1.39-3.39,1.5-1.28.12-2.61.13-4,.03-1.16-.1-2.47-.08-3.93.05-1.46.14-2.88.17-4.26.1-1.38-.07-2.6-.38-3.67-.92-1.07-.54-1.79-1.53-2.17-2.96-.31-1.19-.44-2.35-.41-3.47.07-4.08.14-8.27.23-12.57.08-4.3,0-8.49-.28-12.57-.17-2.55.03-4.45.59-5.69.56-1.24,1.71-2.07,3.44-2.47.92-.24,1.85-.38,2.8-.43.95-.05,1.89-.08,2.83-.08s1.85.03,2.75.08c.9.05,1.79.06,2.68.03,2.28-.34,4.11-.36,5.51-.05,2.14.51,3.16,1.9,3.06,4.18-.07,1.53-.72,2.63-1.96,3.31-1.24.68-2.8.99-4.67.92-1.63-.07-3.13-.19-4.49-.36-1.36-.17-2.8-.25-4.33-.25Z"/>
    <path class="cls-3" d="m314.05,164.24c.31,1.53.46,3.08.46,4.64s-.17,3.1-.51,4.62c-.34,1.51-.86,2.98-1.56,4.41s-1.57,2.77-2.63,4.03c-1.19,1.39-2.5,2.54-3.93,3.44-1.43.9-2.92,1.56-4.49,1.99-1.56.42-3.16.62-4.79.59-1.63-.03-3.25-.29-4.84-.76-1.02-.34-1.77-1.05-2.24-2.14-.54-1.29-.99-2.58-1.33-3.88-.99-3.4-1.67-6.83-2.07-10.28-.39-3.45-.67-6.94-.84-10.48-.04-.75-.09-1.51-.15-2.29-.07-.78-.08-1.56-.03-2.32.05-.76.19-1.49.41-2.17.22-.68.62-1.31,1.2-1.89,1.02-1.02,2.19-1.77,3.52-2.24,1.33-.48,2.72-.72,4.18-.74,1.46-.02,2.95.15,4.46.51,1.51.36,2.97.84,4.36,1.45,3.16,1.43,5.6,3.28,7.32,5.56,1.72,2.28,2.88,4.93,3.49,7.96Zm-16.98,14.99c1.53-.03,2.88-.4,4.05-1.1,1.17-.7,2.14-1.6,2.91-2.7.76-1.1,1.33-2.35,1.68-3.75.36-1.39.51-2.81.46-4.23-.05-1.43-.31-2.81-.76-4.16-.46-1.34-1.14-2.51-2.04-3.49-.9-.99-2.02-1.73-3.37-2.24-1.34-.51-2.9-.65-4.67-.41-.27.68-.45,1.62-.54,2.8-.08,1.19-.12,2.52-.1,3.98.02,1.46.09,2.98.23,4.56.13,1.58.31,3.08.54,4.49.22,1.41.47,2.67.74,3.77.27,1.11.56,1.93.87,2.47Z"/>
    <path class="cls-3" d="m328.64,155.47c.03.78.08,1.51.13,2.19.05.68.1,1.35.15,2.01s.09,1.33.13,2.01c.03.68.08,1.39.15,2.14,1.29.07,2.56.15,3.8.23,1.24.09,2.46,0,3.65-.23.99-.2,1.8-.18,2.45.08.65.25,1.12.63,1.43,1.12.3.49.46,1.05.46,1.68s-.12,1.23-.36,1.81c-.24.58-.6,1.06-1.07,1.45-.48.39-1.04.6-1.68.64-.65.03-1.33.03-2.07,0-.73-.03-1.47-.07-2.22-.1-.75-.03-1.5-.04-2.27-.03-.76.02-1.5.08-2.22.18v9.89c1.26.17,2.51.23,3.75.18,1.24-.05,2.44-.23,3.6-.54,2.31-.61,4.11-.53,5.38.25,1.27.78,1.91,2.04,1.91,3.77,0,.54-.13,1.06-.38,1.56-.26.49-.6.93-1.05,1.3-.99.88-2.12,1.39-3.39,1.5s-2.61.13-4,.03c-1.16-.1-2.46-.08-3.93.05-1.46.14-2.88.17-4.26.1-1.38-.07-2.6-.38-3.67-.92-1.07-.54-1.79-1.53-2.17-2.96-.31-1.19-.44-2.35-.41-3.47.07-4.08.14-8.27.23-12.57.08-4.3,0-8.49-.28-12.57-.17-2.55.03-4.45.59-5.69.56-1.24,1.71-2.07,3.44-2.47.92-.24,1.85-.38,2.8-.43.95-.05,1.9-.08,2.83-.08s1.85.03,2.75.08c.9.05,1.79.06,2.68.03,2.28-.34,4.11-.36,5.51-.05,2.14.51,3.16,1.9,3.06,4.18-.07,1.53-.72,2.63-1.96,3.31-1.24.68-2.8.99-4.67.92-1.63-.07-3.13-.19-4.49-.36s-2.8-.25-4.33-.25Z"/>
    <path class="cls-3" d="m369.75,170.87c.03-.27.06-.48.08-.64.02-.15.04-.31.08-.48.14-2.41.26-4.8.38-7.17s.25-4.75.38-7.17c.07-1.67.65-3.03,1.73-4.08.58-.54,1.2-.9,1.86-1.07.66-.17,1.37-.1,2.12.2.78.31,1.4.77,1.86,1.4s.77,1.39.94,2.27c.07.44.09.89.08,1.35-.02.46-.09.91-.23,1.35-.58,2.38-.98,4.79-1.2,7.22-.22,2.43-.4,4.87-.54,7.32-.07,1.56-.1,3.12-.1,4.67s-.03,3.12-.1,4.72c-.03.58-.08,1.17-.13,1.76-.05.6-.16,1.18-.33,1.76-.2.78-.54,1.42-.99,1.91-.46.49-.98.83-1.56,1.02-.58.19-1.18.2-1.81.03-.63-.17-1.22-.53-1.76-1.07-.68-.68-1.33-1.38-1.96-2.12-.63-.73-1.21-1.5-1.76-2.32-1.29-2.01-2.57-4.03-3.83-6.07s-2.52-4.08-3.77-6.12c-.17-.27-.35-.54-.54-.82-.19-.27-.42-.63-.69-1.07-.58,5.58-.94,11.17-1.07,16.78-.04.71-.19,1.32-.46,1.81-.27.49-.6.89-1,1.2-.39.31-.83.53-1.3.66-.48.14-.94.22-1.38.25-.88.07-1.69-.23-2.42-.89-.73-.66-1.18-1.66-1.35-2.98-.2-1.97-.28-4.22-.23-6.73.05-2.52.17-5.1.36-7.75.19-2.65.4-5.25.64-7.8.24-2.55.42-4.84.56-6.88,0-.17.02-.34.05-.51.03-.17.07-.34.1-.51.14-1.02.46-1.89.97-2.63.51-.73,1.22-1.23,2.14-1.5,1.94-.58,3.57-.02,4.9,1.68.27.37.51.76.71,1.15.2.39.42.77.66,1.15l9.33,16.06c.07.14.25.36.56.66Z"/>
  </g>
  <g>
    <path class="cls-2" d="m120.12,70.08c-.71-18.78-12.82-38-41.72-27.71,14.58,3.82,1.25,32.75,41.72,27.71h0Z"/>
    <path class="cls-2" d="m127.84,87.49c.47-15.57,9.12-25.79,23.01-27.49l-1.09-12.35c-17.99,5.98-29.5,21.18-29.97,40.16,1.33.37,2.67.76,4.02,1.21,1.35-.56,2.69-1.06,4.02-1.54Z"/>
    <path class="cls-3" d="m171.51,90.7c-11.06-8.25-26.42-9.33-43.67-3.21-1.33.47-2.67.98-4.02,1.54-1.35-.45-2.69-.84-4.02-1.21-17.45-4.81-32.54-2.61-42.91,6.39-10.76,9.34-15.14,25.31-11.72,42.73,6.68,33.62,28.16,59.34,48.9,58.55,3.16-.12,6.89-1.29,9.89-2.23,1.36-.42,3.21-1.01,3.78-1.05.75-.02,2.87.45,4.57.83,3.15.7,6.71,1.5,9.76,1.38,20.74-.79,40.2-28.07,44.31-62.11,2.08-17.56-3.48-33.12-14.87-41.61Zm-41.34,87.72c-1.1,1.36-2.09,2.6-2.91,3.66-17.52-18.01-26.53-31.64-26.77-40.53-.37-13.94,10.52-25.71,24.27-26.24,6.82-.26,13.32,2.16,18.3,6.82,4.9,4.58,7.7,10.77,7.89,17.42.36,12.56-13.4,29.67-20.79,38.86Zm49.24-46.94c-3.58,29.68-20.8,55.29-37.61,55.93-2.13.08-5.23-.61-7.96-1.22-.27-.06-.5-.11-.75-.17.73-.94,1.59-2.01,2.55-3.2,8.52-10.59,22.77-28.31,22.33-43.46-.25-8.54-3.84-16.47-10.12-22.34-6.36-5.95-14.66-9.04-23.36-8.71-17.58.67-31.5,15.67-31.02,33.44.38,14.24,16.12,32.22,28.36,44.83-2.6.81-5.82,1.82-8.03,1.9-16.81.64-35.93-23.59-41.75-52.9-2.93-14.91.6-28.4,9.43-36.07,9.42-8.19,24.1-9.4,41.31-3.41.83.29,1.73.25,2.54-.09,16.98-7.32,31.89-7.2,41.98.32,9.49,7.08,13.9,19.9,12.1,35.16Z"/>
    <path class="cls-2" d="m129.58,171.89c-.89,1.11-1.7,2.12-2.37,2.98-14.27-14.67-21.61-25.78-21.8-33.01-.3-11.36,8.57-20.94,19.77-21.37,5.55-.21,10.85,1.76,14.91,5.56,3.99,3.73,6.27,8.77,6.43,14.19.3,10.23-10.91,24.17-16.93,31.65Z"/>
    <path class="cls-1" d="m127.22,174.87c-.68-16.05-2.23-38.54-2.12-54.38,0,0,.08,0,.08,0,1.26,15.65,1.7,38.62,2.05,54.38h0Z"/>
    <path class="cls-1" d="m139.15,140.72c-4.28-3.67-9.36-6.93-12.89-11.21,2.42,1.55,4.57,3.41,6.64,5.38,2.03,1.93,4.45,3.86,6.25,5.83h0Z"/>
    <path class="cls-1" d="m112.26,141.64c3.99-3.98,7.64-8.79,12.19-11.97-1.73,2.29-3.76,4.28-5.88,6.2-2.09,1.87-4.2,4.13-6.31,5.77h0Z"/>
    <path class="cls-1" d="m137.39,153.71c-3.33-2.9-7.47-5.39-10.03-8.9,1.95,1.16,3.62,2.64,5.22,4.22,1.55,1.55,3.5,3.09,4.82,4.68h0Z"/>
    <path class="cls-1" d="m115.46,153.73c3.04-2.9,5.76-6.65,9.33-8.73-1.26,1.76-2.81,3.21-4.46,4.58-1.61,1.33-3.25,3.05-4.88,4.14h0Z"/>
    <path class="cls-1" d="m133.23,163.7c-1.44-1.22-2.94-2.37-4.29-3.68-.25-.33-1.15-1.28-1.06-1.61,1.17.57,2.07,1.45,2.89,2.43.7.86,2.02,2.02,2.47,2.86h0Z"/>
    <path class="cls-1" d="m120.39,164.14c1.12-1.48,2.17-3.02,3.39-4.41.3-.26,1.21-1.2,1.53-1.12-.5,1.19-1.31,2.11-2.23,2.97-.76.68-1.97,2.18-2.69,2.57h0Z"/>
  </g>
</svg>